<svg width="102" height="35" viewBox="0 0 102 35" fill="none" xmlns="http://www.w3.org/2000/svg">
<path d="M76 22.7974L82.191 22.1955C82.5636 24.2734 83.3159 25.7997 84.4481 26.7742C85.5946 27.7487 87.1351 28.2359 89.0698 28.2359C91.1191 28.2359 92.6597 27.806 93.6915 26.9462C94.7377 26.072 95.2608 25.0545 95.2608 23.8937C95.2608 23.1485 95.0386 22.5179 94.5944 22.002C94.1645 21.4717 93.4049 21.0132 92.3158 20.6262C91.5706 20.3683 89.8723 19.9097 87.2211 19.2504C83.8104 18.4049 81.4171 17.3659 80.0413 16.1335C78.1066 14.3994 77.1393 12.2856 77.1393 9.79203C77.1393 8.18696 77.5907 6.68938 78.4936 5.29928C79.4108 3.89485 80.722 2.82719 82.4274 2.09632C84.1471 1.36544 86.218 1 88.6399 1C92.5952 1 95.5689 1.86702 97.5609 3.60106C99.5672 5.33511 100.621 7.64955 100.721 10.5444L94.3579 10.8239C94.0856 9.20446 93.4981 8.04366 92.5952 7.34144C91.7067 6.62489 90.3668 6.26662 88.5754 6.26662C86.7267 6.26662 85.2793 6.64639 84.2331 7.40593C83.5596 7.89318 83.2228 8.54524 83.2228 9.3621C83.2228 10.1073 83.5381 10.745 84.1686 11.2753C84.9712 11.9488 86.9202 12.6511 90.0157 13.3819C93.1111 14.1128 95.3969 14.8723 96.873 15.6605C98.3634 16.4344 99.5242 17.5021 100.355 18.8635C101.201 20.2106 101.624 21.8802 101.624 23.8722C101.624 25.6779 101.122 27.3689 100.119 28.9453C99.1158 30.5217 97.697 31.6969 95.8627 32.4707C94.0283 33.2303 91.7425 33.61 89.0053 33.61C85.0213 33.61 81.9617 32.6929 79.8264 30.8585C77.6911 29.0098 76.4156 26.3228 76 22.7974Z" fill="white"/>
<path d="M57 34H50.0455L40 1H46.9545L57 34Z" fill="white" fill-opacity="0.9"/>
<path d="M50 34H56.9545L67 1H60.0455L50 34Z" fill="white" fill-opacity="0.9"/>
<path d="M31 34H37.5455L47 1H40.4545L31 34Z" fill="#FF4D00"/>
<path d="M76 34H69.4545L60 1H66.5455L76 34Z" fill="#0BB783"/>
<path d="M26.9081 7.04487C26.1248 5.64355 25.1322 4.4544 23.93 3.48228C22.7314 2.50256 21.3795 1.76293 19.8779 1.26338C18.3854 0.75299 16.7826 0.5 15.073 0.5C12.2877 0.5 9.78531 1.1863 7.58073 2.56778C5.37528 3.93932 3.64486 5.90574 2.38574 8.4474C1.12154 10.9888 0.5 14.0121 0.5 17.5C0.5 20.9774 1.11644 23.9998 2.36956 26.5508L2.3703 26.5523C3.62944 29.0941 5.35973 31.0655 7.56469 32.4474L7.5662 32.4484C9.77108 33.8194 12.2783 34.5 15.073 34.5C16.8457 34.5 18.4927 34.2307 20.0093 33.6864C21.5192 33.1445 22.8653 32.3783 24.0435 31.3868L24.0439 31.3865C25.232 30.3847 26.2032 29.197 26.9559 27.8262C27.7184 26.4453 28.2303 24.9368 28.4936 23.3044L28.5868 22.7267L28.0016 22.7248L23.2342 22.7091L22.8185 22.7078L22.7413 23.1163C22.5584 24.0847 22.2286 24.9331 21.7573 25.6684L21.7565 25.6697C21.2887 26.4047 20.7181 27.0238 20.0442 27.5305C19.3685 28.0385 18.6104 28.4258 17.7667 28.6917C16.9315 28.9477 16.0446 29.077 15.1036 29.077C13.412 29.077 11.9026 28.642 10.5614 27.7766C9.22808 26.9164 8.1604 25.6374 7.36832 23.9113C6.59098 22.1953 6.191 20.0643 6.191 17.5C6.191 14.9573 6.59079 12.8365 7.36836 11.12C8.16081 9.39313 9.22428 8.10808 10.5488 7.23733C11.8887 6.36314 13.407 5.923 15.1188 5.923C16.0694 5.923 16.9602 6.05731 17.7939 6.3229L17.7955 6.32339C18.6381 6.58877 19.3956 6.98049 20.0711 7.49812C20.7457 8.01502 21.317 8.64466 21.7854 9.39047C22.2459 10.1236 22.5665 10.9812 22.7401 11.9713L22.8127 12.385H23.2326H28H28.5826L28.4942 11.8091C28.2215 10.0326 27.695 8.44224 26.9081 7.04487ZM26.9081 7.04487C26.9082 7.04509 26.9083 7.04531 26.9085 7.04553L26.472 7.28945M26.9081 7.04487C26.9079 7.0446 26.9078 7.04435 26.9076 7.04408L26.472 7.28945M26.472 7.28945C27.1522 8.49713 27.6333 9.8623 27.9154 11.385M26.472 7.28945C25.7182 5.94059 24.7657 4.80086 23.6146 3.87025C22.4635 2.92918 21.1647 2.21816 19.7182 1.73717L27.9154 11.385M27.9154 11.385H28V11.885L27.5058 11.9608C27.5019 11.9355 27.498 11.9102 27.494 11.885M27.9154 11.385L27.494 11.885M27.9106 23.7245C27.6375 25.1116 27.1732 26.3984 26.5178 27.5851C25.7946 28.9026 24.8625 30.0423 23.7216 31.0043C22.5908 31.9558 21.2971 32.693 19.8404 33.2158C18.3837 33.7386 16.7946 34 15.073 34C12.3633 34 9.94907 33.3413 7.83022 32.0238C5.71138 30.6958 4.04075 28.798 2.81834 26.3303C1.60611 23.8626 1 20.9192 1 17.5C1 14.0703 1.61121 11.1269 2.83362 8.66968L27.9106 23.7245ZM27.9106 23.7245L27.9984 23.7248L28 23.2248L27.5064 23.1452C27.5022 23.1712 27.4979 23.1972 27.4936 23.2231L23.2326 23.2091C23.039 24.2338 22.6876 25.1435 22.1783 25.9382C21.6791 26.7224 21.0679 27.3864 20.3447 27.9301C19.6214 28.4739 18.8115 28.8869 17.9151 29.1692C17.0289 29.4411 16.0917 29.577 15.1036 29.577C13.3209 29.577 11.7165 29.1169 10.2903 28.1968C8.86418 27.2766 7.73854 25.9173 6.91341 24.1188L27.9106 23.7245ZM27.494 11.885H23.2326C23.0492 10.8394 22.708 9.9192 22.2088 9.12453C21.7097 8.32985 21.0985 7.65542 20.3752 7.10123C19.652 6.54705 18.8421 6.1288 17.9457 5.84648C17.0594 5.56416 16.1171 5.423 15.1188 5.423C13.3158 5.423 11.7012 5.88831 10.275 6.81892L27.494 11.885Z" fill="white" stroke="white"/>
</svg>
