<svg width="95" height="33" viewBox="0 0 95 33" fill="none" xmlns="http://www.w3.org/2000/svg">
<path d="M71.0372 21.3762L76.736 20.8222C77.079 22.7349 77.7715 24.1398 78.8137 25.0369C79.869 25.9339 81.2871 26.3824 83.0679 26.3824C84.9543 26.3824 86.3724 25.9867 87.3222 25.1952C88.2852 24.3905 88.7667 23.4539 88.7667 22.3854C88.7667 21.6994 88.5622 21.119 88.1533 20.6441C87.7575 20.156 87.0584 19.7339 86.0558 19.3777C85.3699 19.1402 83.8067 18.7181 81.3662 18.1113C78.2266 17.333 76.0236 16.3766 74.7573 15.2421C72.9764 13.6459 72.086 11.7002 72.086 9.40486C72.086 7.9274 72.5015 6.54888 73.3326 5.2693C74.1768 3.97653 75.3839 2.99375 76.9536 2.32098C78.5366 1.64821 80.4428 1.31183 82.6722 1.31183C86.3131 1.31183 89.0503 2.10992 90.8839 3.7061C92.7308 5.30228 93.7003 7.43272 93.7927 10.0974L87.9356 10.3546C87.685 8.864 87.1441 7.79548 86.3131 7.1491C85.4952 6.48952 84.2618 6.15973 82.6128 6.15973C80.9111 6.15973 79.5788 6.50931 78.6158 7.20846C77.9958 7.65697 77.6858 8.25719 77.6858 9.00911C77.6858 9.69507 77.976 10.2821 78.5564 10.7702C79.2952 11.3902 81.0892 12.0366 83.9386 12.7093C86.788 13.3821 88.892 14.0813 90.2507 14.8068C91.6227 15.5191 92.6912 16.5019 93.4563 17.7551C94.2346 18.9951 94.6238 20.5319 94.6238 22.3656C94.6238 24.0277 94.162 25.5843 93.2386 27.0354C92.3152 28.4865 91.0093 29.5682 89.3207 30.2805C87.6322 30.9797 85.5282 31.3292 83.0086 31.3292C79.3413 31.3292 76.5249 30.485 74.5594 28.7965C72.5938 27.0947 71.4198 24.6213 71.0372 21.3762Z" fill="white"/>
<path d="M53.5477 31.6882H47.1461L37.8993 1.31181H44.3009L53.5477 31.6882Z" fill="white" fill-opacity="0.9"/>
<path d="M47.1042 31.6882H53.5059L62.7527 1.31181H56.351L47.1042 31.6882Z" fill="white" fill-opacity="0.9"/>
<path d="M29.6149 31.6882H35.6399L44.3428 1.31181H38.3177L29.6149 31.6882Z" fill="#FF4D00"/>
<path d="M71.0372 31.6882H65.0122L56.3093 1.31181H62.3344L71.0372 31.6882Z" fill="#0BB783"/>
<path d="M26.8534 11.3314H22.465C22.2962 10.3689 21.9821 9.52192 21.5226 8.79042C21.0632 8.05892 20.5006 7.43811 19.8348 6.92799C19.169 6.41787 18.4236 6.03287 17.5984 5.773C16.7826 5.51312 15.9153 5.38319 14.9963 5.38319C13.3366 5.38319 11.8504 5.8115 10.5376 6.66812C9.23425 7.52474 8.2028 8.7808 7.44327 10.4363C6.69312 12.0918 6.31805 14.113 6.31805 16.5C6.31805 18.9062 6.69312 20.9371 7.44327 22.5926C8.2028 24.2481 9.23894 25.4993 10.5517 26.3463C11.8645 27.1933 13.3413 27.6168 14.9823 27.6168C15.8918 27.6168 16.7545 27.4917 17.5703 27.2415C18.3955 26.9816 19.1409 26.6014 19.8067 26.1009C20.4724 25.6004 21.035 24.9892 21.4945 24.2674C21.9634 23.5359 22.2869 22.6985 22.465 21.7552L26.8534 21.7697C26.619 23.223 26.1642 24.5609 25.4891 25.7833C24.8233 26.996 23.9653 28.0451 22.9151 28.9306C21.8743 29.8065 20.6834 30.4851 19.3425 30.9663C18.0016 31.4476 16.5388 31.6882 14.9541 31.6882C12.4599 31.6882 10.2376 31.0818 8.28719 29.8691C6.3368 28.6467 4.799 26.8998 3.67377 24.6283C2.55792 22.3568 2 19.6474 2 16.5C2 13.343 2.56261 10.6336 3.68784 8.37173C4.81306 6.10025 6.35087 4.35813 8.30126 3.14538C10.2516 1.92301 12.4693 1.31183 14.9541 1.31183C16.4826 1.31183 17.9079 1.53802 19.23 1.99039C20.5615 2.43314 21.7571 3.08763 22.8166 3.95388C23.8762 4.8105 24.753 5.85962 25.4469 7.10124C26.1407 8.33323 26.6096 9.74329 26.8534 11.3314Z" fill="white"/>
<path fill-rule="evenodd" clip-rule="evenodd" d="M27.9259 12.2519H21.6919L21.5583 11.4904C21.4074 10.63 21.1314 9.8982 20.7431 9.28002C20.3402 8.63849 19.8511 8.10013 19.2749 7.65865C18.697 7.21582 18.048 6.87966 17.3219 6.65097L17.319 6.65006C16.5999 6.421 15.8274 6.30368 14.9963 6.30368C13.5047 6.30368 12.1958 6.68559 11.0419 7.43819C9.90667 8.18466 8.98018 9.29449 8.28074 10.8182C7.59941 12.3229 7.23851 14.2059 7.23851 16.5C7.23851 18.8146 7.5998 20.7069 8.28078 22.2107C8.97944 23.7328 9.90886 24.8361 11.0507 25.5729C12.207 26.3189 13.5089 26.6963 14.9822 26.6963C15.8051 26.6963 16.5753 26.5835 17.2971 26.3624C18.0252 26.1327 18.6753 25.7998 19.2535 25.3651C19.8285 24.9329 20.3162 24.4043 20.7179 23.7731L20.7195 23.7706C21.1183 23.1484 21.4019 22.4239 21.5605 21.5844L21.7025 20.8322L27.9336 20.8527L27.7621 21.9162C27.5118 23.4683 27.0241 24.9077 26.2952 26.2276C25.5754 27.5384 24.6455 28.6756 23.5084 29.6344C22.3801 30.5838 21.0922 31.3163 19.6534 31.8327C18.2022 32.3535 16.633 32.6087 14.9541 32.6087C12.3034 32.6087 9.90988 31.962 7.80109 30.6508L7.79832 30.649C5.68939 29.3273 4.04175 27.4449 2.8489 25.0369L2.84754 25.0341C1.6564 22.6094 1.07947 19.7546 1.07947 16.5C1.07947 13.2358 1.66112 10.3793 2.8633 7.96245C4.05611 5.5548 5.70398 3.67677 7.81377 2.36454C9.922 1.04361 12.3112 0.391327 14.9541 0.391327C16.573 0.391327 18.0986 0.630909 19.5242 1.11817C20.957 1.59509 22.2502 2.30223 23.3972 3.23959C24.5508 4.17262 25.5016 5.31267 26.2496 6.65084C27.0044 7.99142 27.5049 9.50931 27.7632 11.1917L27.9259 12.2519ZM25.4468 7.10123C24.7529 5.85962 23.8762 4.8105 22.8166 3.95387C21.757 3.08763 20.5615 2.43313 19.23 1.99038C17.9078 1.53801 16.4825 1.31182 14.9541 1.31182C12.4692 1.31182 10.2516 1.92301 8.30122 3.14538C6.35083 4.35812 4.81302 6.10024 3.6878 8.37173C2.56258 10.6336 1.99996 13.343 1.99996 16.5C1.99996 19.6474 2.55789 22.3568 3.67373 24.6283C4.79896 26.8998 6.33677 28.6467 8.28715 29.8691C10.2375 31.0818 12.4599 31.6882 14.9541 31.6882C16.5388 31.6882 18.0016 31.4476 19.3425 30.9663C20.6834 30.4851 21.8742 29.8065 22.9151 28.9306C23.9653 28.0451 24.8233 26.996 25.489 25.7833C26.0192 24.8233 26.4135 23.792 26.6719 22.6896C26.7426 22.3883 26.803 22.0816 26.8534 21.7697L22.465 21.7552C22.2868 22.6985 21.9633 23.5358 21.4945 24.2673C21.035 24.9892 20.4724 25.6004 19.8066 26.1009C19.1409 26.6014 18.3954 26.9816 17.5703 27.2415C16.7545 27.4917 15.8918 27.6168 14.9822 27.6168C13.3413 27.6168 11.8644 27.1933 10.5517 26.3463C9.23891 25.4993 8.20276 24.2481 7.44324 22.5926C6.69309 20.9371 6.31801 18.9062 6.31801 16.5C6.31801 14.113 6.69309 12.0918 7.44324 10.4363C8.20276 8.78079 9.23422 7.52473 10.5376 6.66811C11.8504 5.81149 13.3366 5.38318 14.9963 5.38318C15.9152 5.38318 16.7826 5.51312 17.5984 5.77299C18.4235 6.03286 19.169 6.41786 19.8348 6.92798C20.5005 7.43811 21.0631 8.05892 21.5226 8.79041C21.9821 9.52191 22.2962 10.3689 22.465 11.3314H26.8534C26.8052 11.0176 26.7482 10.7108 26.6825 10.4109C26.4155 9.19303 26.0036 8.08981 25.4468 7.10123Z" fill="white"/>
</svg>
