<svg width="107" height="47" viewBox="0 0 107 47" fill="none" xmlns="http://www.w3.org/2000/svg">
<path d="M4.386 18.221C3.71733 18.221 3.043 18.1473 2.363 18C1.69433 17.8527 1.09933 17.643 0.578 17.371L1.292 15.348C1.51867 15.4727 1.79067 15.603 2.108 15.739C2.42533 15.875 2.771 15.9883 3.145 16.079C3.519 16.1697 3.89867 16.215 4.284 16.215C4.73733 16.215 5.07733 16.1527 5.304 16.028C5.542 15.892 5.661 15.688 5.661 15.416C5.661 15.212 5.58167 15.0477 5.423 14.923C5.27567 14.787 5.05467 14.6623 4.76 14.549C4.46533 14.4243 4.114 14.294 3.706 14.158C3.10533 13.9427 2.58967 13.7103 2.159 13.461C1.72833 13.2117 1.394 12.9057 1.156 12.543C0.929333 12.1803 0.816 11.727 0.816 11.183C0.816 10.5597 0.974667 10.0497 1.292 9.653C1.60933 9.25633 2.057 8.96167 2.635 8.769C3.213 8.565 3.88733 8.463 4.658 8.463C5.29267 8.463 5.865 8.514 6.375 8.616C6.885 8.718 7.28167 8.84833 7.565 9.007V11.013C7.37233 10.9223 7.11733 10.8317 6.8 10.741C6.494 10.6503 6.15967 10.5767 5.797 10.52C5.44567 10.452 5.10567 10.418 4.777 10.418C4.31233 10.418 3.961 10.4803 3.723 10.605C3.485 10.7297 3.366 10.9053 3.366 11.132C3.366 11.3133 3.44533 11.4663 3.604 11.591C3.774 11.7157 4.01767 11.8347 4.335 11.948C4.65233 12.05 5.032 12.1803 5.474 12.339C6.06333 12.543 6.562 12.7697 6.97 13.019C7.378 13.2683 7.684 13.5743 7.888 13.937C8.10333 14.2997 8.211 14.7473 8.211 15.28C8.211 15.79 8.092 16.2717 7.854 16.725C7.62733 17.167 7.23633 17.5297 6.681 17.813C6.12567 18.085 5.36067 18.221 4.386 18.221ZM11.205 12.509C10.6837 12.509 10.27 12.4297 9.96401 12.271C9.65801 12.1123 9.43701 11.9027 9.30101 11.642C9.16501 11.37 9.09701 11.0867 9.09701 10.792C9.09701 10.5993 9.12534 10.401 9.18201 10.197C9.23868 9.98167 9.32368 9.772 9.43701 9.568L11.29 9.806C11.2673 9.88533 11.2447 9.97033 11.222 10.061C11.2107 10.1517 11.205 10.248 11.205 10.35C11.205 10.4973 11.2503 10.6163 11.341 10.707C11.4317 10.7863 11.5903 10.826 11.817 10.826H13.738V12.509H11.205ZM11.205 17.269C10.6837 17.269 10.27 17.1897 9.96401 17.031C9.65801 16.8723 9.43701 16.6627 9.30101 16.402C9.16501 16.13 9.09701 15.8467 9.09701 15.552C9.09701 15.3593 9.12534 15.161 9.18201 14.957C9.23868 14.7417 9.32368 14.532 9.43701 14.328L11.29 14.566C11.2673 14.6453 11.2447 14.7303 11.222 14.821C11.2107 14.9117 11.205 15.008 11.205 15.11C11.205 15.2573 11.2503 15.3763 11.341 15.467C11.4317 15.5463 11.5903 15.586 11.817 15.586H13.738V17.269H11.205ZM19.517 18.221C18.0436 18.221 16.9726 17.881 16.304 17.201C15.6466 16.5097 15.318 15.5123 15.318 14.209V8.684H17.868V14.345C17.868 14.9457 17.9983 15.4047 18.259 15.722C18.531 16.028 18.9503 16.181 19.517 16.181C20.0836 16.181 20.4973 16.028 20.758 15.722C21.03 15.4047 21.166 14.9457 21.166 14.345V8.684H23.716V14.209C23.716 15.5123 23.3816 16.5097 22.713 17.201C22.0556 17.881 20.9903 18.221 19.517 18.221ZM29.9096 18.221C28.4362 18.221 27.3652 17.881 26.6966 17.201C26.0392 16.5097 25.7106 15.5123 25.7106 14.209V8.684H28.2606V14.345C28.2606 14.9457 28.3909 15.4047 28.6516 15.722C28.9236 16.028 29.3429 16.181 29.9096 16.181C30.4762 16.181 30.8899 16.028 31.1506 15.722C31.4226 15.4047 31.5586 14.9457 31.5586 14.345V8.684H34.1086V14.209C34.1086 15.5123 33.7742 16.5097 33.1056 17.201C32.4482 17.881 31.3829 18.221 29.9096 18.221ZM36.0182 18V15.161C36.0182 14.447 36.1598 13.8973 36.4432 13.512C36.7265 13.1267 37.1288 12.8547 37.6502 12.696L37.6672 12.628L35.8482 11.965V11.523C35.8482 10.9677 36.0125 10.4577 36.3412 9.993C36.6698 9.52833 37.1515 9.16 37.7862 8.888C38.4322 8.60467 39.2142 8.463 40.1322 8.463C40.9935 8.463 41.7358 8.599 42.3592 8.871C42.9825 9.13167 43.4642 9.52833 43.8042 10.061C44.1555 10.5823 44.3312 11.2453 44.3312 12.05V18H41.7812V12.203C41.7812 11.6363 41.6282 11.2113 41.3222 10.928C41.0275 10.6447 40.6082 10.503 40.0642 10.503C39.5428 10.503 39.1518 10.6163 38.8912 10.843C38.6305 11.0583 38.4888 11.3247 38.4662 11.642L39.9792 12.339L39.7922 13.444C39.3842 13.4667 39.0782 13.614 38.8742 13.886C38.6702 14.158 38.5682 14.5263 38.5682 14.991V18H36.0182ZM48.7947 18V11.846C48.7947 11.37 48.6814 11.0243 48.4547 10.809C48.2394 10.5937 47.8824 10.486 47.3837 10.486C47.0097 10.486 46.6641 10.537 46.3467 10.639C46.0407 10.741 45.7517 10.8657 45.4797 11.013V8.973C45.7291 8.85967 46.0804 8.74633 46.5337 8.633C46.9871 8.51967 47.5197 8.463 48.1317 8.463C48.7551 8.463 49.3047 8.55367 49.7807 8.735C50.2681 8.91633 50.6477 9.22233 50.9197 9.653C51.2031 10.0723 51.3447 10.6503 51.3447 11.387V18H48.7947ZM56.5316 18.221C55.8629 18.221 55.1886 18.1473 54.5086 18C53.8399 17.8527 53.2449 17.643 52.7236 17.371L53.4376 15.348C53.6643 15.4727 53.9363 15.603 54.2536 15.739C54.5709 15.875 54.9166 15.9883 55.2906 16.079C55.6646 16.1697 56.0443 16.215 56.4296 16.215C56.8829 16.215 57.2229 16.1527 57.4496 16.028C57.6876 15.892 57.8066 15.688 57.8066 15.416C57.8066 15.212 57.7273 15.0477 57.5686 14.923C57.4213 14.787 57.2003 14.6623 56.9056 14.549C56.6109 14.4243 56.2596 14.294 55.8516 14.158C55.2509 13.9427 54.7353 13.7103 54.3046 13.461C53.8739 13.2117 53.5396 12.9057 53.3016 12.543C53.0749 12.1803 52.9616 11.727 52.9616 11.183C52.9616 10.5597 53.1203 10.0497 53.4376 9.653C53.7549 9.25633 54.2026 8.96167 54.7806 8.769C55.3586 8.565 56.0329 8.463 56.8036 8.463C57.4383 8.463 58.0106 8.514 58.5206 8.616C59.0306 8.718 59.4273 8.84833 59.7106 9.007V11.013C59.5179 10.9223 59.2629 10.8317 58.9456 10.741C58.6396 10.6503 58.3053 10.5767 57.9426 10.52C57.5913 10.452 57.2513 10.418 56.9226 10.418C56.4579 10.418 56.1066 10.4803 55.8686 10.605C55.6306 10.7297 55.5116 10.9053 55.5116 11.132C55.5116 11.3133 55.5909 11.4663 55.7496 11.591C55.9196 11.7157 56.1633 11.8347 56.4806 11.948C56.7979 12.05 57.1776 12.1803 57.6196 12.339C58.2089 12.543 58.7076 12.7697 59.1156 13.019C59.5236 13.2683 59.8296 13.5743 60.0336 13.937C60.2489 14.2997 60.3566 14.7473 60.3566 15.28C60.3566 15.79 60.2376 16.2717 59.9996 16.725C59.7729 17.167 59.3819 17.5297 58.8266 17.813C58.2713 18.085 57.5063 18.221 56.5316 18.221ZM62.5176 18V14.09H61.5486V12.526H64.8126V16.062H64.9316C65.3056 16.062 65.623 15.96 65.8836 15.756C66.1556 15.552 66.3596 15.2517 66.4956 14.855C66.6316 14.447 66.6996 13.937 66.6996 13.325C66.6996 12.6223 66.5976 12.067 66.3936 11.659C66.201 11.2397 65.912 10.9393 65.5266 10.758C65.1413 10.5767 64.6653 10.486 64.0986 10.486C63.5093 10.486 62.9766 10.571 62.5006 10.741C62.0246 10.8997 61.5996 11.0923 61.2256 11.319V9.194C61.5996 9.00133 62.07 8.83133 62.6366 8.684C63.2033 8.53667 63.855 8.463 64.5916 8.463C65.691 8.463 66.5806 8.63867 67.2606 8.99C67.952 9.34133 68.462 9.874 68.7906 10.588C69.1193 11.302 69.2836 12.1973 69.2836 13.274C69.2836 14.2827 69.1306 15.144 68.8246 15.858C68.53 16.5607 68.0426 17.0933 67.3626 17.456C66.694 17.8187 65.7986 18 64.6766 18H62.5176ZM65.9681 7.392C65.4354 7.392 65.0161 7.31267 64.7101 7.154C64.4041 6.99533 64.1888 6.797 64.0641 6.559C63.9281 6.30967 63.8601 6.049 63.8601 5.777C63.8601 5.58433 63.8884 5.38033 63.9451 5.165C64.0018 4.93833 64.0868 4.72867 64.2001 4.536L66.0531 4.774C66.0304 4.85333 66.0134 4.93833 66.0021 5.029C65.9794 5.10833 65.9681 5.182 65.9681 5.25C65.9681 5.40867 66.0191 5.53333 66.1211 5.624C66.2118 5.70333 66.3704 5.743 66.5971 5.743H70.2521V7.392H65.9681ZM73.8341 18.17C72.9161 18.17 72.1851 17.9717 71.6411 17.575C71.0971 17.167 70.7061 16.6117 70.4681 15.909C70.2301 15.195 70.1111 14.379 70.1111 13.461C70.1111 12.475 70.2187 11.659 70.4341 11.013C70.6607 10.3557 70.9781 9.84567 71.3861 9.483C71.7941 9.109 72.2757 8.84833 72.8311 8.701C73.3977 8.54233 74.0154 8.463 74.6841 8.463C75.7041 8.463 76.5201 8.60467 77.1321 8.888C77.7441 9.17133 78.1861 9.57367 78.4581 10.095C78.7414 10.6163 78.8831 11.2283 78.8831 11.931V18H76.3331V12.135C76.3331 11.6023 76.2027 11.2 75.9421 10.928C75.6927 10.6447 75.2734 10.503 74.6841 10.503C74.2874 10.503 73.9361 10.588 73.6301 10.758C73.3354 10.9167 73.1031 11.2057 72.9331 11.625C72.7744 12.0443 72.6951 12.645 72.6951 13.427C72.6951 13.9597 72.7461 14.43 72.8481 14.838C72.9501 15.246 73.1144 15.5633 73.3411 15.79C73.5791 16.0167 73.8964 16.13 74.2931 16.13C74.4177 16.13 74.5367 16.1243 74.6501 16.113C74.7747 16.0903 74.8824 16.0677 74.9731 16.045L75.2111 17.949C75.0297 18.0283 74.8087 18.085 74.5481 18.119C74.2987 18.153 74.0607 18.17 73.8341 18.17ZM80.7927 18V15.161C80.7927 14.447 80.9343 13.8973 81.2177 13.512C81.501 13.1267 81.9033 12.8547 82.4247 12.696L82.4417 12.628L80.6227 11.965V11.523C80.6227 10.9677 80.787 10.4577 81.1157 9.993C81.4443 9.52833 81.926 9.16 82.5607 8.888C83.2067 8.60467 83.9887 8.463 84.9067 8.463C85.768 8.463 86.5103 8.599 87.1337 8.871C87.757 9.13167 88.2387 9.52833 88.5787 10.061C88.93 10.5823 89.1057 11.2453 89.1057 12.05V18H86.5557V12.203C86.5557 11.6363 86.4027 11.2113 86.0967 10.928C85.802 10.6447 85.3827 10.503 84.8387 10.503C84.3173 10.503 83.9263 10.6163 83.6657 10.843C83.405 11.0583 83.2633 11.3247 83.2407 11.642L84.7537 12.339L84.5667 13.444C84.1587 13.4667 83.8527 13.614 83.6487 13.886C83.4447 14.158 83.3427 14.5263 83.3427 14.991V18H80.7927ZM93.5693 18V11.846C93.5693 11.37 93.4559 11.0243 93.2293 10.809C93.0139 10.5937 92.6569 10.486 92.1583 10.486C91.7843 10.486 91.4386 10.537 91.1213 10.639C90.8153 10.741 90.5263 10.8657 90.2543 11.013V8.973C90.5036 8.85967 90.8549 8.74633 91.3083 8.633C91.7616 8.51967 92.2943 8.463 92.9063 8.463C93.5296 8.463 94.0793 8.55367 94.5553 8.735C95.0426 8.91633 95.4223 9.22233 95.6943 9.653C95.9776 10.0723 96.1193 10.6503 96.1193 11.387V18H93.5693ZM101.306 18.221C100.637 18.221 99.9631 18.1473 99.2831 18C98.6145 17.8527 98.0195 17.643 97.4981 17.371L98.2121 15.348C98.4388 15.4727 98.7108 15.603 99.0281 15.739C99.3455 15.875 99.6911 15.9883 100.065 16.079C100.439 16.1697 100.819 16.215 101.204 16.215C101.657 16.215 101.997 16.1527 102.224 16.028C102.462 15.892 102.581 15.688 102.581 15.416C102.581 15.212 102.502 15.0477 102.343 14.923C102.196 14.787 101.975 14.6623 101.68 14.549C101.385 14.4243 101.034 14.294 100.626 14.158C100.025 13.9427 99.5098 13.7103 99.0791 13.461C98.6485 13.2117 98.3141 12.9057 98.0761 12.543C97.8495 12.1803 97.7361 11.727 97.7361 11.183C97.7361 10.5597 97.8948 10.0497 98.2121 9.653C98.5295 9.25633 98.9771 8.96167 99.5551 8.769C100.133 8.565 100.807 8.463 101.578 8.463C102.213 8.463 102.785 8.514 103.295 8.616C103.805 8.718 104.202 8.84833 104.485 9.007V11.013C104.292 10.9223 104.037 10.8317 103.72 10.741C103.414 10.6503 103.08 10.5767 102.717 10.52C102.366 10.452 102.026 10.418 101.697 10.418C101.232 10.418 100.881 10.4803 100.643 10.605C100.405 10.7297 100.286 10.9053 100.286 11.132C100.286 11.3133 100.365 11.4663 100.524 11.591C100.694 11.7157 100.938 11.8347 101.255 11.948C101.572 12.05 101.952 12.1803 102.394 12.339C102.983 12.543 103.482 12.7697 103.89 13.019C104.298 13.2683 104.604 13.5743 104.808 13.937C105.023 14.2997 105.131 14.7473 105.131 15.28C105.131 15.79 105.012 16.2717 104.774 16.725C104.547 17.167 104.156 17.5297 103.601 17.813C103.046 18.085 102.281 18.221 101.306 18.221Z" fill="white"/>
<path d="M7.644 32.1258H7.584L6.876 33.5298L4.872 37.1778L2.868 33.5298L2.16 32.1258H2.1V39.1818H1.116V30.8058H2.46L4.86 35.3178H4.92L7.332 30.8058H8.628V39.1818H7.644V32.1258ZM14.8765 39.1818C14.5165 39.1818 14.2565 39.0858 14.0965 38.8938C13.9445 38.7018 13.8485 38.4618 13.8085 38.1738H13.7485C13.6125 38.5578 13.3885 38.8458 13.0765 39.0378C12.7645 39.2298 12.3925 39.3258 11.9605 39.3258C11.3045 39.3258 10.7925 39.1578 10.4245 38.8218C10.0645 38.4858 9.88446 38.0298 9.88446 37.4538C9.88446 36.8698 10.0965 36.4218 10.5205 36.1098C10.9525 35.7978 11.6205 35.6418 12.5245 35.6418H13.7485V35.0298C13.7485 34.5898 13.6285 34.2538 13.3885 34.0218C13.1485 33.7898 12.7805 33.6738 12.2845 33.6738C11.9085 33.6738 11.5925 33.7578 11.3365 33.9258C11.0885 34.0938 10.8805 34.3178 10.7125 34.5978L10.1365 34.0578C10.3045 33.7218 10.5725 33.4378 10.9405 33.2058C11.3085 32.9658 11.7725 32.8458 12.3325 32.8458C13.0845 32.8458 13.6685 33.0298 14.0845 33.3978C14.5005 33.7658 14.7085 34.2778 14.7085 34.9338V38.3418H15.4165V39.1818H14.8765ZM12.1165 38.5098C12.3565 38.5098 12.5765 38.4818 12.7765 38.4258C12.9765 38.3698 13.1485 38.2898 13.2925 38.1858C13.4365 38.0818 13.5485 37.9618 13.6285 37.8258C13.7085 37.6898 13.7485 37.5418 13.7485 37.3818V36.3618H12.4765C11.9245 36.3618 11.5205 36.4418 11.2645 36.6018C11.0165 36.7618 10.8925 36.9938 10.8925 37.2978V37.5498C10.8925 37.8538 11.0005 38.0898 11.2165 38.2578C11.4405 38.4258 11.7405 38.5098 12.1165 38.5098ZM16.4048 39.1818V32.9898H17.3648V33.9978H17.4128C17.5648 33.6458 17.7768 33.3658 18.0488 33.1578C18.3288 32.9498 18.7008 32.8458 19.1648 32.8458C19.8048 32.8458 20.3088 33.0538 20.6768 33.4698C21.0528 33.8778 21.2408 34.4578 21.2408 35.2098V39.1818H20.2808V35.3778C20.2808 34.2658 19.8128 33.7098 18.8768 33.7098C18.6848 33.7098 18.4968 33.7338 18.3128 33.7818C18.1368 33.8298 17.9768 33.9018 17.8328 33.9978C17.6888 34.0938 17.5728 34.2178 17.4848 34.3698C17.4048 34.5138 17.3648 34.6858 17.3648 34.8858V39.1818H16.4048ZM27.3433 39.1818C26.9833 39.1818 26.7233 39.0858 26.5633 38.8938C26.4113 38.7018 26.3153 38.4618 26.2753 38.1738H26.2153C26.0793 38.5578 25.8553 38.8458 25.5433 39.0378C25.2313 39.2298 24.8593 39.3258 24.4273 39.3258C23.7713 39.3258 23.2593 39.1578 22.8913 38.8218C22.5313 38.4858 22.3513 38.0298 22.3513 37.4538C22.3513 36.8698 22.5633 36.4218 22.9873 36.1098C23.4193 35.7978 24.0873 35.6418 24.9913 35.6418H26.2153V35.0298C26.2153 34.5898 26.0953 34.2538 25.8553 34.0218C25.6153 33.7898 25.2473 33.6738 24.7513 33.6738C24.3753 33.6738 24.0593 33.7578 23.8033 33.9258C23.5553 34.0938 23.3473 34.3178 23.1793 34.5978L22.6033 34.0578C22.7713 33.7218 23.0393 33.4378 23.4073 33.2058C23.7753 32.9658 24.2393 32.8458 24.7993 32.8458C25.5513 32.8458 26.1353 33.0298 26.5513 33.3978C26.9673 33.7658 27.1753 34.2778 27.1753 34.9338V38.3418H27.8833V39.1818H27.3433ZM24.5833 38.5098C24.8233 38.5098 25.0433 38.4818 25.2433 38.4258C25.4433 38.3698 25.6153 38.2898 25.7593 38.1858C25.9033 38.0818 26.0153 37.9618 26.0953 37.8258C26.1753 37.6898 26.2153 37.5418 26.2153 37.3818V36.3618H24.9433C24.3913 36.3618 23.9873 36.4418 23.7313 36.6018C23.4833 36.7618 23.3593 36.9938 23.3593 37.2978V37.5498C23.3593 37.8538 23.4673 38.0898 23.6833 38.2578C23.9073 38.4258 24.2073 38.5098 24.5833 38.5098ZM34.0916 39.8658C34.0916 40.5058 33.8396 40.9738 33.3356 41.2698C32.8396 41.5738 32.0916 41.7258 31.0916 41.7258C30.1236 41.7258 29.4276 41.5938 29.0036 41.3298C28.5796 41.0658 28.3676 40.6898 28.3676 40.2018C28.3676 39.8658 28.4556 39.6018 28.6316 39.4098C28.8076 39.2258 29.0476 39.0898 29.3516 39.0018V38.8698C28.9836 38.6938 28.7996 38.4058 28.7996 38.0058C28.7996 37.6938 28.8996 37.4578 29.0996 37.2978C29.2996 37.1298 29.5556 37.0058 29.8676 36.9258V36.8778C29.4996 36.7018 29.2116 36.4498 29.0036 36.1218C28.8036 35.7938 28.7036 35.4138 28.7036 34.9818C28.7036 34.6698 28.7596 34.3818 28.8716 34.1178C28.9836 33.8538 29.1396 33.6298 29.3396 33.4458C29.5476 33.2538 29.7916 33.1058 30.0716 33.0018C30.3596 32.8978 30.6796 32.8458 31.0316 32.8458C31.4716 32.8458 31.8636 32.9258 32.2076 33.0858V32.9778C32.2076 32.7378 32.2636 32.5418 32.3756 32.3898C32.4876 32.2298 32.6716 32.1498 32.9276 32.1498H33.8516V32.9898H32.6756V33.3858C32.8996 33.5778 33.0716 33.8098 33.1916 34.0818C33.3196 34.3458 33.3836 34.6458 33.3836 34.9818C33.3836 35.2938 33.3276 35.5818 33.2156 35.8458C33.1036 36.1098 32.9436 36.3378 32.7356 36.5298C32.5356 36.7138 32.2916 36.8578 32.0036 36.9618C31.7156 37.0658 31.3956 37.1178 31.0436 37.1178C30.8436 37.1178 30.6436 37.0978 30.4436 37.0578C30.2356 37.1138 30.0476 37.1978 29.8796 37.3098C29.7116 37.4138 29.6276 37.5618 29.6276 37.7538C29.6276 37.9378 29.7156 38.0618 29.8916 38.1258C30.0676 38.1898 30.2956 38.2218 30.5756 38.2218H31.8956C32.6636 38.2218 33.2196 38.3698 33.5636 38.6658C33.9156 38.9538 34.0916 39.3538 34.0916 39.8658ZM33.1916 39.9378C33.1916 39.6898 33.0956 39.4898 32.9036 39.3378C32.7196 39.1938 32.3876 39.1218 31.9076 39.1218H29.8436C29.4596 39.2978 29.2676 39.5778 29.2676 39.9618C29.2676 40.2338 29.3676 40.4658 29.5676 40.6578C29.7756 40.8498 30.1236 40.9458 30.6116 40.9458H31.4996C32.0356 40.9458 32.4516 40.8618 32.7476 40.6938C33.0436 40.5258 33.1916 40.2738 33.1916 39.9378ZM31.0436 36.3498C31.4516 36.3498 31.7756 36.2538 32.0156 36.0618C32.2556 35.8618 32.3756 35.5578 32.3756 35.1498V34.8138C32.3756 34.4058 32.2556 34.1058 32.0156 33.9138C31.7756 33.7138 31.4516 33.6138 31.0436 33.6138C30.6356 33.6138 30.3116 33.7138 30.0716 33.9138C29.8316 34.1058 29.7116 34.4058 29.7116 34.8138V35.1498C29.7116 35.5578 29.8316 35.8618 30.0716 36.0618C30.3116 36.2538 30.6356 36.3498 31.0436 36.3498ZM37.0873 39.3258C36.6633 39.3258 36.2793 39.2498 35.9353 39.0978C35.5993 38.9458 35.3073 38.7298 35.0593 38.4498C34.8193 38.1618 34.6313 37.8218 34.4953 37.4298C34.3673 37.0298 34.3033 36.5818 34.3033 36.0858C34.3033 35.5978 34.3673 35.1538 34.4953 34.7538C34.6313 34.3538 34.8193 34.0138 35.0593 33.7338C35.3073 33.4458 35.5993 33.2258 35.9353 33.0738C36.2793 32.9218 36.6633 32.8458 37.0873 32.8458C37.5033 32.8458 37.8753 32.9218 38.2033 33.0738C38.5313 33.2258 38.8113 33.4378 39.0433 33.7098C39.2753 33.9738 39.4513 34.2898 39.5713 34.6578C39.6993 35.0258 39.7633 35.4298 39.7633 35.8698V36.3258H35.3113V36.6138C35.3113 36.8778 35.3513 37.1258 35.4313 37.3578C35.5193 37.5818 35.6393 37.7778 35.7913 37.9458C35.9513 38.1138 36.1433 38.2458 36.3673 38.3418C36.5993 38.4378 36.8593 38.4858 37.1473 38.4858C37.5393 38.4858 37.8793 38.3938 38.1673 38.2098C38.4633 38.0258 38.6913 37.7618 38.8513 37.4178L39.5353 37.9098C39.3353 38.3338 39.0233 38.6778 38.5993 38.9418C38.1753 39.1978 37.6713 39.3258 37.0873 39.3258ZM37.0873 33.6498C36.8233 33.6498 36.5833 33.6978 36.3673 33.7938C36.1513 33.8818 35.9633 34.0098 35.8033 34.1778C35.6513 34.3458 35.5313 34.5458 35.4433 34.7778C35.3553 35.0018 35.3113 35.2498 35.3113 35.5218V35.6058H38.7313V35.4738C38.7313 34.9218 38.5793 34.4818 38.2753 34.1538C37.9793 33.8178 37.5833 33.6498 37.0873 33.6498ZM40.9635 39.1818V32.9898H41.9235V33.9978H41.9715C42.0435 33.8378 42.1235 33.6898 42.2115 33.5538C42.3075 33.4098 42.4195 33.2858 42.5475 33.1818C42.6835 33.0778 42.8395 32.9978 43.0155 32.9418C43.1915 32.8778 43.3995 32.8458 43.6395 32.8458C44.0475 32.8458 44.4235 32.9458 44.7675 33.1458C45.1115 33.3378 45.3675 33.6578 45.5355 34.1058H45.5595C45.6715 33.7698 45.8795 33.4778 46.1835 33.2298C46.4955 32.9738 46.9155 32.8458 47.4435 32.8458C48.0755 32.8458 48.5675 33.0538 48.9195 33.4698C49.2795 33.8778 49.4595 34.4578 49.4595 35.2098V39.1818H48.4995V35.3778C48.4995 34.8258 48.3915 34.4098 48.1755 34.1298C47.9595 33.8498 47.6155 33.7098 47.1435 33.7098C46.9515 33.7098 46.7675 33.7338 46.5915 33.7818C46.4235 33.8298 46.2715 33.9018 46.1355 33.9978C45.9995 34.0938 45.8915 34.2178 45.8115 34.3698C45.7315 34.5138 45.6915 34.6858 45.6915 34.8858V39.1818H44.7315V35.3778C44.7315 34.8258 44.6235 34.4098 44.4075 34.1298C44.1915 33.8498 43.8555 33.7098 43.3995 33.7098C43.2075 33.7098 43.0235 33.7338 42.8475 33.7818C42.6715 33.8298 42.5155 33.9018 42.3795 33.9978C42.2435 34.0938 42.1315 34.2178 42.0435 34.3698C41.9635 34.5138 41.9235 34.6858 41.9235 34.8858V39.1818H40.9635ZM53.3862 39.3258C52.9622 39.3258 52.5782 39.2498 52.2342 39.0978C51.8982 38.9458 51.6062 38.7298 51.3582 38.4498C51.1182 38.1618 50.9302 37.8218 50.7942 37.4298C50.6662 37.0298 50.6022 36.5818 50.6022 36.0858C50.6022 35.5978 50.6662 35.1538 50.7942 34.7538C50.9302 34.3538 51.1182 34.0138 51.3582 33.7338C51.6062 33.4458 51.8982 33.2258 52.2342 33.0738C52.5782 32.9218 52.9622 32.8458 53.3862 32.8458C53.8022 32.8458 54.1742 32.9218 54.5022 33.0738C54.8302 33.2258 55.1102 33.4378 55.3422 33.7098C55.5742 33.9738 55.7502 34.2898 55.8702 34.6578C55.9982 35.0258 56.0622 35.4298 56.0622 35.8698V36.3258H51.6102V36.6138C51.6102 36.8778 51.6502 37.1258 51.7302 37.3578C51.8182 37.5818 51.9382 37.7778 52.0902 37.9458C52.2502 38.1138 52.4422 38.2458 52.6662 38.3418C52.8982 38.4378 53.1582 38.4858 53.4462 38.4858C53.8382 38.4858 54.1782 38.3938 54.4662 38.2098C54.7622 38.0258 54.9902 37.7618 55.1502 37.4178L55.8342 37.9098C55.6342 38.3338 55.3222 38.6778 54.8982 38.9418C54.4742 39.1978 53.9702 39.3258 53.3862 39.3258ZM53.3862 33.6498C53.1222 33.6498 52.8822 33.6978 52.6662 33.7938C52.4502 33.8818 52.2622 34.0098 52.1022 34.1778C51.9502 34.3458 51.8302 34.5458 51.7422 34.7778C51.6542 35.0018 51.6102 35.2498 51.6102 35.5218V35.6058H55.0302V35.4738C55.0302 34.9218 54.8782 34.4818 54.5742 34.1538C54.2782 33.8178 53.8822 33.6498 53.3862 33.6498ZM57.2623 39.1818V32.9898H58.2223V33.9978H58.2703C58.4223 33.6458 58.6343 33.3658 58.9063 33.1578C59.1863 32.9498 59.5583 32.8458 60.0223 32.8458C60.6623 32.8458 61.1663 33.0538 61.5343 33.4698C61.9103 33.8778 62.0983 34.4578 62.0983 35.2098V39.1818H61.1383V35.3778C61.1383 34.2658 60.6703 33.7098 59.7343 33.7098C59.5423 33.7098 59.3543 33.7338 59.1703 33.7818C58.9943 33.8298 58.8343 33.9018 58.6903 33.9978C58.5463 34.0938 58.4303 34.2178 58.3423 34.3698C58.2623 34.5138 58.2223 34.6858 58.2223 34.8858V39.1818H57.2623ZM65.0688 39.1818C64.7328 39.1818 64.4768 39.0898 64.3008 38.9058C64.1328 38.7138 64.0488 38.4658 64.0488 38.1618V33.8298H63.0288V32.9898H63.6048C63.8128 32.9898 63.9528 32.9498 64.0248 32.8698C64.1048 32.7818 64.1448 32.6338 64.1448 32.4258V31.2738H65.0088V32.9898H66.3648V33.8298H65.0088V38.3418H66.2688V39.1818H65.0688ZM72.4282 39.3258C71.7482 39.3258 71.1682 39.1978 70.6882 38.9418C70.2082 38.6778 69.8002 38.3178 69.4642 37.8618L70.2082 37.2378C70.5042 37.6298 70.8322 37.9298 71.1922 38.1378C71.5522 38.3378 71.9762 38.4378 72.4642 38.4378C73.0642 38.4378 73.5202 38.2938 73.8322 38.0058C74.1522 37.7178 74.3122 37.3338 74.3122 36.8538C74.3122 36.4538 74.1922 36.1458 73.9522 35.9298C73.7122 35.7138 73.3162 35.5418 72.7642 35.4138L72.0802 35.2578C71.3122 35.0818 70.7242 34.8178 70.3162 34.4658C69.9162 34.1058 69.7162 33.6018 69.7162 32.9538C69.7162 32.5858 69.7842 32.2578 69.9202 31.9698C70.0562 31.6818 70.2442 31.4418 70.4842 31.2498C70.7322 31.0578 71.0242 30.9138 71.3602 30.8178C71.7042 30.7138 72.0802 30.6618 72.4882 30.6618C73.1202 30.6618 73.6602 30.7778 74.1082 31.0098C74.5642 31.2418 74.9482 31.5818 75.2602 32.0298L74.5042 32.5818C74.2722 32.2618 73.9922 32.0098 73.6642 31.8258C73.3362 31.6418 72.9282 31.5498 72.4402 31.5498C71.9042 31.5498 71.4802 31.6658 71.1682 31.8978C70.8642 32.1218 70.7122 32.4618 70.7122 32.9178C70.7122 33.3178 70.8402 33.6218 71.0962 33.8298C71.3602 34.0298 71.7562 34.1898 72.2842 34.3098L72.9682 34.4658C73.7922 34.6498 74.3882 34.9298 74.7562 35.3058C75.1242 35.6818 75.3082 36.1818 75.3082 36.8058C75.3082 37.1898 75.2402 37.5378 75.1042 37.8498C74.9762 38.1618 74.7882 38.4258 74.5402 38.6418C74.2922 38.8578 73.9882 39.0258 73.6282 39.1458C73.2762 39.2658 72.8762 39.3258 72.4282 39.3258ZM80.387 32.9898H81.335L78.563 40.6218C78.491 40.8058 78.419 40.9578 78.347 41.0778C78.275 41.2058 78.187 41.3058 78.083 41.3778C77.979 41.4498 77.847 41.5018 77.687 41.5338C77.535 41.5658 77.347 41.5818 77.123 41.5818H76.631V40.7418H77.603L78.071 39.4218L75.755 32.9898H76.715L78.203 37.2018L78.491 38.2098H78.551L78.887 37.2018L80.387 32.9898ZM83.9906 39.3258C83.4146 39.3258 82.9306 39.2178 82.5386 39.0018C82.1546 38.7778 81.8226 38.4818 81.5426 38.1138L82.2266 37.5618C82.4666 37.8658 82.7346 38.1018 83.0306 38.2698C83.3266 38.4298 83.6706 38.5098 84.0626 38.5098C84.4706 38.5098 84.7866 38.4218 85.0106 38.2458C85.2426 38.0698 85.3586 37.8218 85.3586 37.5018C85.3586 37.2618 85.2786 37.0578 85.1186 36.8898C84.9666 36.7138 84.6866 36.5938 84.2786 36.5298L83.7866 36.4578C83.4986 36.4178 83.2346 36.3578 82.9946 36.2778C82.7546 36.1898 82.5426 36.0778 82.3586 35.9418C82.1826 35.7978 82.0426 35.6218 81.9386 35.4138C81.8426 35.2058 81.7946 34.9578 81.7946 34.6698C81.7946 34.3658 81.8506 34.1018 81.9626 33.8778C82.0746 33.6458 82.2266 33.4538 82.4186 33.3018C82.6186 33.1498 82.8546 33.0378 83.1266 32.9658C83.3986 32.8858 83.6906 32.8458 84.0026 32.8458C84.5066 32.8458 84.9266 32.9338 85.2626 33.1098C85.6066 33.2858 85.9066 33.5298 86.1626 33.8418L85.5266 34.4178C85.3906 34.2258 85.1906 34.0538 84.9266 33.9018C84.6626 33.7418 84.3306 33.6618 83.9306 33.6618C83.5306 33.6618 83.2266 33.7498 83.0186 33.9258C82.8186 34.0938 82.7186 34.3258 82.7186 34.6218C82.7186 34.9258 82.8186 35.1458 83.0186 35.2818C83.2266 35.4178 83.5226 35.5178 83.9066 35.5818L84.3866 35.6538C85.0746 35.7578 85.5626 35.9578 85.8506 36.2538C86.1386 36.5418 86.2826 36.9218 86.2826 37.3938C86.2826 37.9938 86.0786 38.4658 85.6706 38.8098C85.2626 39.1538 84.7026 39.3258 83.9906 39.3258ZM88.8824 39.1818C88.5464 39.1818 88.2904 39.0898 88.1144 38.9058C87.9464 38.7138 87.8624 38.4658 87.8624 38.1618V33.8298H86.8424V32.9898H87.4184C87.6264 32.9898 87.7664 32.9498 87.8384 32.8698C87.9184 32.7818 87.9584 32.6338 87.9584 32.4258V31.2738H88.8224V32.9898H90.1784V33.8298H88.8224V38.3418H90.0824V39.1818H88.8824ZM93.6207 39.3258C93.1967 39.3258 92.8127 39.2498 92.4687 39.0978C92.1327 38.9458 91.8407 38.7298 91.5927 38.4498C91.3527 38.1618 91.1647 37.8218 91.0287 37.4298C90.9007 37.0298 90.8367 36.5818 90.8367 36.0858C90.8367 35.5978 90.9007 35.1538 91.0287 34.7538C91.1647 34.3538 91.3527 34.0138 91.5927 33.7338C91.8407 33.4458 92.1327 33.2258 92.4687 33.0738C92.8127 32.9218 93.1967 32.8458 93.6207 32.8458C94.0367 32.8458 94.4087 32.9218 94.7367 33.0738C95.0647 33.2258 95.3447 33.4378 95.5767 33.7098C95.8087 33.9738 95.9847 34.2898 96.1047 34.6578C96.2327 35.0258 96.2967 35.4298 96.2967 35.8698V36.3258H91.8447V36.6138C91.8447 36.8778 91.8847 37.1258 91.9647 37.3578C92.0527 37.5818 92.1727 37.7778 92.3247 37.9458C92.4847 38.1138 92.6767 38.2458 92.9007 38.3418C93.1327 38.4378 93.3927 38.4858 93.6807 38.4858C94.0727 38.4858 94.4127 38.3938 94.7007 38.2098C94.9967 38.0258 95.2247 37.7618 95.3847 37.4178L96.0687 37.9098C95.8687 38.3338 95.5567 38.6778 95.1327 38.9418C94.7087 39.1978 94.2047 39.3258 93.6207 39.3258ZM93.6207 33.6498C93.3567 33.6498 93.1167 33.6978 92.9007 33.7938C92.6847 33.8818 92.4967 34.0098 92.3367 34.1778C92.1847 34.3458 92.0647 34.5458 91.9767 34.7778C91.8887 35.0018 91.8447 35.2498 91.8447 35.5218V35.6058H95.2647V35.4738C95.2647 34.9218 95.1127 34.4818 94.8087 34.1538C94.5127 33.8178 94.1167 33.6498 93.6207 33.6498ZM97.4968 39.1818V32.9898H98.4568V33.9978H98.5048C98.5768 33.8378 98.6568 33.6898 98.7448 33.5538C98.8408 33.4098 98.9528 33.2858 99.0808 33.1818C99.2168 33.0778 99.3728 32.9978 99.5488 32.9418C99.7248 32.8778 99.9328 32.8458 100.173 32.8458C100.581 32.8458 100.957 32.9458 101.301 33.1458C101.645 33.3378 101.901 33.6578 102.069 34.1058H102.093C102.205 33.7698 102.413 33.4778 102.717 33.2298C103.029 32.9738 103.449 32.8458 103.977 32.8458C104.609 32.8458 105.101 33.0538 105.453 33.4698C105.813 33.8778 105.993 34.4578 105.993 35.2098V39.1818H105.033V35.3778C105.033 34.8258 104.925 34.4098 104.709 34.1298C104.493 33.8498 104.149 33.7098 103.677 33.7098C103.485 33.7098 103.301 33.7338 103.125 33.7818C102.957 33.8298 102.805 33.9018 102.669 33.9978C102.533 34.0938 102.425 34.2178 102.345 34.3698C102.265 34.5138 102.225 34.6858 102.225 34.8858V39.1818H101.265V35.3778C101.265 34.8258 101.157 34.4098 100.941 34.1298C100.725 33.8498 100.389 33.7098 99.9328 33.7098C99.7408 33.7098 99.5568 33.7338 99.3808 33.7818C99.2048 33.8298 99.0488 33.9018 98.9128 33.9978C98.7768 34.0938 98.6648 34.2178 98.5768 34.3698C98.4968 34.5138 98.4568 34.6858 98.4568 34.8858V39.1818H97.4968Z" fill="white"/>
</svg>
